<?xml version="1.0" standalone="no"?>
<!DOCTYPE svg PUBLIC "-//W3C//DTD SVG 1.1//EN" "http://www.w3.org/Graphics/SVG/1.1/DTD/svg11.dtd" >
<svg xmlns="http://www.w3.org/2000/svg" xmlns:xlink="http://www.w3.org/1999/xlink" version="1.1">
<metadata>
Created by FontForge 20190801 at Mon Jun 21 12:09:06 2021
 By Unknown
Typeface (c) (wildan suprian syah). 2020. All Rights Reserved
</metadata>
<defs>
<font id="StitchingofChildren" horiz-adv-x="1014" >
  <font-face 
    font-family="Stitching of Children"
    font-weight="400"
    font-stretch="normal"
    units-per-em="2048"
    panose-1="2 0 6 0 0 0 0 0 0 0"
    ascent="1638"
    descent="-410"
    x-height="762"
    cap-height="1469"
    bbox="0 -464 1545 2092"
    underline-thickness="150"
    underline-position="-292"
    unicode-range="U+0021-E0003"
  />
<missing-glyph horiz-adv-x="1024" 
d="M100 0v1434h824v-1434h-824zM150 50h724v1334h-724v-1334zM325 1148q31 28 58 43q53 30 112 30q92 0 148 -47.5t56 -127.5q0 -49 -23 -98.5t-87 -129.5q-63 -80 -99 -132t-36 -99q0 -38 24 -133h-32q-35 97 -35 148q0 76 81.5 218t81.5 217q0 57 -33 90t-91 33
q-38 0 -69 -17q-26 -15 -56 -40v45zM389 334l57 58q11 10 20 10q10 0 22 -11l56 -60q9 -11 9 -20q0 -11 -10 -22l-56 -62q-14 -14 -21 -14q-11 0 -20 10l-61 71q-7 9 -7 18q0 10 11 22z" />
    <glyph glyph-name=".notdef" horiz-adv-x="1024" 
d="M100 0v1434h824v-1434h-824zM150 50h724v1334h-724v-1334zM325 1148q31 28 58 43q53 30 112 30q92 0 148 -47.5t56 -127.5q0 -49 -23 -98.5t-87 -129.5q-63 -80 -99 -132t-36 -99q0 -38 24 -133h-32q-35 97 -35 148q0 76 81.5 218t81.5 217q0 57 -33 90t-91 33
q-38 0 -69 -17q-26 -15 -56 -40v45zM389 334l57 58q11 10 20 10q10 0 22 -11l56 -60q9 -11 9 -20q0 -11 -10 -22l-56 -62q-14 -14 -21 -14q-11 0 -20 10l-61 71q-7 9 -7 18q0 10 11 22z" />
    <glyph glyph-name="space" unicode="&#xa0;" horiz-adv-x="620" 
 />
    <glyph glyph-name="space" unicode=" " horiz-adv-x="620" 
 />
    <glyph glyph-name="exclam" unicode="!" horiz-adv-x="409" 
d="M153 426q-4 0 -8 2q-35 23 -61 156.5t-40.5 322.5t-14.5 370q0 194 19 331q9 54 40.5 79t73.5 25q68 0 134 -56q71 -61 72 -158q0 -63 -13.5 -190.5t-36 -277t-50.5 -287t-58 -227.5t-57 -90zM183 -48h-9q-49 0 -85.5 40.5t-42.5 102.5l-1 16q0 59 32 101t81 48h9
q49 0 85.5 -40.5t42.5 -102.5l1 -16q0 -58 -32 -100.5t-81 -48.5z" />
    <glyph glyph-name="quotedbl" unicode="&#x22;" horiz-adv-x="532" 
d="M120 1098q-20 0 -41 22q-54 66 -54 344q0 79 3 136l3 57q30 72 66 72q34 0 64 -56t48.5 -135.5t18.5 -148.5q0 -114 -31.5 -202.5t-76.5 -88.5zM411 1098q-16 0 -33 22q-43 66 -43 342q0 80 3 137l2 58q26 72 52 72q27 0 51 -56t39 -135.5t15 -148.5q0 -114 -25 -202.5
t-61 -88.5z" />
    <glyph glyph-name="numbersign" unicode="#" horiz-adv-x="1094" 
d="M638 68q-24 0 -44 16t-33 39q-6 12 -6 52q0 119 39 397l-173 -19q-28 -211 -61 -311q-43 -117 -103 -117q-24 0 -44.5 16.5t-32.5 39.5q-6 12 -6 53q0 96 26 299l-67 -3q-95 0 -95 22q0 15 40 31q23 8 131 21l28 196l-52 -1l-41 1q-90 3 -90 18q0 11 41 22q26 6 150 12
q35 217 55 317q21 94 54.5 136t66.5 42q30 0 52.5 -32.5t22.5 -86.5q0 -14 -2 -29l-36 -339q93 5 180 6q27 167 44 245q22 94 55.5 136t65.5 42q30 0 52.5 -32.5t22.5 -85.5q0 -14 -2 -29q-7 -58 -29 -271h13q65 0 93.5 -5.5t28.5 -13.5t-32 -16.5t-93 -10.5l-15 -1
l-18 -160l27 2q32 2 56 2q46 0 67 -6t21 -15q0 -12 -30.5 -24t-81.5 -18l-67 -8q-33 -281 -74 -413q-43 -116 -104 -116zM431 628l173 17l26 170q-87 -5 -178 -8q-10 -90 -21 -179z" />
    <glyph glyph-name="dollar" unicode="$" horiz-adv-x="716" 
d="M361 -71q-11 0 -18 131q-100 16 -159 94t-84 171.5t-25 145.5q0 96 26 100q16 0 34 -59q7 -28 13.5 -72.5t16.5 -94.5t29.5 -95t52 -73.5t83.5 -28.5h12l-1 449q-101 153 -182 255q-34 45 -50 68q-44 71 -44 168q0 62 17 126t50.5 117t82 85.5t111.5 32.5l19 -1l1 20
q6 163 19 163q10 0 18 -77q2 -23 3 -112q82 -22 129 -80t82 -127q3 -5 3 -10q0 -7 -4.5 -11.5t-9.5 -4.5q-8 0 -15 12q-12 28 -42 64t-67.5 64t-69.5 28h-5l1 -228l-1 -270q35 -56 80 -105q58 -62 105.5 -128t76 -135.5t28.5 -140.5v-9q0 -39 -25.5 -108.5t-90 -128
t-182.5 -65.5q-8 -130 -18 -130zM341 968q0 221 2 386q-55 -50 -55 -158q0 -104 53 -228zM382 155q93 26 93 119t-89 249q-2 -344 -4 -358v-10z" />
    <glyph glyph-name="percent" unicode="%" horiz-adv-x="1187" 
d="M149 80q-6 0 -6 10q0 36 80 182l116 199q417 724 559 941q84 126 104 126q6 0 6 -8q0 -25 -19 -73q-41 -93 -461 -799q-157 -263 -230 -381q-65 -105 -101.5 -151t-47.5 -46zM227 839q-24 0 -47 7q-70 23 -109 95.5t-39 169.5q0 62 18 129q36 120 110 193t155 73
q24 0 47 -7q70 -23 109 -96t39 -169q0 -62 -18 -129q-35 -120 -109.5 -193t-155.5 -73zM276 936q45 0 88 46t65 121q12 45 12 86q0 56 -20.5 97t-56.5 54q-11 3 -23 3q-46 0 -89 -46t-65 -121q-12 -46 -12 -87q0 -56 20 -96.5t57 -52.5q12 -4 24 -4zM824 149q-25 0 -49 7
q-72 22 -113 91.5t-41 162.5q0 59 19 123q37 114 114 184t162 70q25 0 49 -7q72 -22 112.5 -91t40.5 -161q0 -60 -19 -124q-36 -115 -113 -185t-162 -70zM874 242q48 0 92.5 44t67.5 115q13 44 13 84q0 53 -21 92.5t-60 50.5q-12 3 -24 3q-47 0 -91.5 -43.5t-67.5 -115.5
q-13 -44 -13 -84q0 -53 21 -92t59 -51q12 -3 24 -3z" />
    <glyph glyph-name="ampersand" unicode="&#x26;" horiz-adv-x="1066" 
d="M407 -27q-145 0 -228.5 45t-118.5 116.5t-35 151.5q0 152 140 390q109 186 227 341q-50 63 -71 96q-38 59 -38 125q0 49 20.5 91t60.5 67.5t98 25.5q109 0 171 -55.5t94 -163.5q8 -27 8 -57q0 -55 -23.5 -116.5t-60 -123.5t-79.5 -122q116 -227 276 -485q26 82 29 123
q5 29 17 46.5t25 17.5q10 0 19.5 -17.5t10.5 -63.5q0 -41 -18 -94t-39 -88q57 -92 98 -156l41 -63l-56 -5l-108 183q-50 -62 -132.5 -123t-224.5 -80q-55 -6 -103 -6zM432 1069q48 62 70 96q32 50 32 86q0 38 -26 59t-57 21q-15 0 -29 -5q-79 -27 -79 -85q0 -63 89 -172z
M585 96q65 0 111 21.5t78 56.5t52 75q-187 314 -290 485l-33 -45q-69 -90 -105 -150q-80 -142 -80 -245q0 -46 19.5 -85.5t66 -68t126.5 -40.5q29 -4 55 -4z" />
    <glyph glyph-name="quotesingle" unicode="'" horiz-adv-x="263" 
d="M120 1098q-20 0 -41 22q-54 66 -54 344q0 79 3 136l3 57q30 72 66 72q34 0 64 -56t48.5 -135.5t18.5 -148.5q0 -114 -31.5 -202.5t-76.5 -88.5z" />
    <glyph glyph-name="parenleft" unicode="(" horiz-adv-x="684" 
d="M464 -43q-24 0 -80.5 42t-122 130.5t-120.5 225.5t-80 327q-6 51 -6 100q0 131 38 244t97.5 205.5t126.5 164t127.5 121t100.5 75.5q17 11 35 11q25 0 45 -20q18 -21 18 -46t-19 -46q-45 -41 -107.5 -125t-118.5 -211.5t-82 -298.5q-17 -127 -17 -225q0 -103 15 -183
t39.5 -150t53.5 -140q34 -82 68 -182l2 -8q0 -11 -13 -11z" />
    <glyph glyph-name="parenright" unicode=")" horiz-adv-x="684" 
d="M185 -67q-12 0 -13 11l2 8q34 100 68 182q29 70 53.5 140t39.5 150t15 183q0 98 -17 225q-26 171 -82 298.5t-118 211.5t-107 125q-20 21 -20 47q0 24 18 45q20 20 45 20q18 0 35 -11q40 -26 100.5 -75.5t127.5 -121t126.5 -164t97.5 -205.5t38 -244q0 -49 -6 -100
q-25 -190 -80 -327t-120.5 -225.5t-122 -130.5t-80.5 -42z" />
    <glyph glyph-name="asterisk" unicode="*" horiz-adv-x="747" 
d="M382 1014q-10 0 -21.5 22.5t-19.5 74.5q-6 44 -17 139l-78 -114q-48 -67 -73 -67q-13 0 -13 19q0 23 24 65l94 152q-146 -17 -201 -17q-15 0 -20 2q-30 9 -30 25q0 20 61 36q61 14 192 28q-55 70 -94 124t-43 67t-4 23q0 21 14 21q16 0 55 -36q33 -34 92 -111
q-11 122 -11 168q0 13 1 18q9 31 24 31q19 0 35 -64q11 -53 23 -167q61 95 95 137q37 40 53 40q15 0 15 -25q0 -7 -2 -16q-7 -26 -116 -197q180 17 192 17q52 0 57 -23q0 -11 -21.5 -22.5t-71 -20t-161.5 -22.5l58 -78l56 -74q30 -43 30 -67q0 -15 -13 -16q-11 0 -30 14
q-27 19 -90 98l-31 38l12 -141l1 -20q0 -55 -23 -61z" />
    <glyph glyph-name="plus" unicode="+" horiz-adv-x="903" 
d="M431 336q-38 0 -67 28q-29 35 -38 345q-89 -4 -152 -4q-144 0 -144 35q0 18 31 34q29 12 263 23l-1 128q0 122 4 186q7 80 36.5 116.5t63.5 36.5q29 0 53 -25t26.5 -69.5t8.5 -125.5q9 -107 16 -238q117 3 166 3q64 0 92 -11t28 -24q0 -14 -24 -25.5t-65 -14.5
q-63 -3 -193 -13q3 -65 3 -121q0 -100 -11 -158q-15 -59 -41.5 -82.5t-54.5 -23.5z" />
    <glyph glyph-name="comma" unicode="," horiz-adv-x="466" 
d="M88 -316q-17 0 -17 9q0 18 75 73q95 71 95 143q0 16 -3.5 27.5t-6.5 18.5l-4 6l-9 -7q-9 -8 -23.5 -15.5t-32.5 -7.5q-62 0 -93 124q-2 9 -2 19q0 47 40.5 93.5t93.5 46.5q79 0 130 -117q19 -48 19 -92q0 -70 -36 -128t-82.5 -100.5t-83.5 -66.5l-36 -23l-4 -1
q-3 -1 -8.5 -1.5t-11.5 -0.5z" />
    <glyph glyph-name="hyphen" unicode="&#xad;" horiz-adv-x="841" 
d="M272 719q-101 0 -160 14q-53 18 -74 48.5t-21 61.5q0 34 17 59q19 19 132 27t236 8q152 0 237 -8q70 -9 102 -43t32 -70q0 -28 -18.5 -49.5t-51.5 -24t-90 -6.5q-220 -17 -341 -17z" />
    <glyph glyph-name="hyphen" unicode="-" horiz-adv-x="841" 
d="M272 719q-101 0 -160 14q-53 18 -74 48.5t-21 61.5q0 34 17 59q19 19 132 27t236 8q152 0 237 -8q70 -9 102 -43t32 -70q0 -28 -18.5 -49.5t-51.5 -24t-90 -6.5q-220 -17 -341 -17z" />
    <glyph glyph-name="period" unicode="." horiz-adv-x="335" 
d="M151 -112q-16 0 -32 5q-40 15 -70.5 56t-30.5 90q0 19 6 37q17 50 62 82t90 32q14 0 28 -4q37 -14 58.5 -54t21.5 -86q0 -27 -8 -53q-16 -48 -50.5 -76.5t-74.5 -28.5z" />
    <glyph glyph-name="slash" unicode="/" horiz-adv-x="852" 
d="M101 -411q-30 0 -32 74q0 68 32 198q48 192 119 519q80 373 165 721t151 461q111 166 182 166q45 0 66.5 -59.5t21.5 -144.5l-1 -41q-9 -116 -93 -386q-127 -411 -387 -1128q-71 -194 -132 -289q-59 -91 -92 -91z" />
    <glyph glyph-name="zero" unicode="0" horiz-adv-x="780" 
d="M362 61l-14 1q-14 1 -48.5 19.5t-78 59t-85 109.5t-69 172t-27.5 247q0 54 5 113q25 283 78.5 421.5t110 185t89.5 51.5q18 5 38 5q50 0 110 -35t113.5 -112t88.5 -200.5t35 -301.5q0 -55 -4 -115q-12 -169 -43.5 -282t-73.5 -181t-85.5 -102t-81 -44.5t-58.5 -10.5z
M395 163q48 0 100 60.5t89 174.5t43 277q2 66 2 126q0 135 -12.5 233t-45 156t-92.5 72l-10 1q-37 0 -71.5 -54.5t-61 -141t-42.5 -186.5t-16 -191v-15q3 -172 7 -255q6 -105 27 -173.5t67 -81.5q8 -2 16 -2z" />
    <glyph glyph-name="one" unicode="1" horiz-adv-x="380" 
d="M173 46q-35 0 -64 26t-39 81q-22 142 -35.5 367.5t-13.5 436.5q0 296 27 399q11 39 40.5 57.5t65.5 18.5q37 0 71.5 -19.5t51.5 -57.5q37 -94 37 -461q0 -230 -11 -449.5t-21 -291.5q-9 -51 -40.5 -79t-68.5 -28z" />
    <glyph glyph-name="two" unicode="2" horiz-adv-x="695" 
d="M145 18q-30 0 -67 3l-4 1q-24 4 -40 26q-11 16 -11 44q0 48 34 153.5t110 311.5q46 125 99.5 276t92.5 290t39 218q0 36 -11 55q-3 4 -5 4q-65 0 -112 -24q-84 -42 -131 -131q-32 -60 -40 -97q-4 -18 -17 -28t-29 -10q-24 0 -38 19q-10 13 -10 29q0 6 1 11
q10 45 37.5 100.5t72.5 106.5q106 120 265 120q21 0 37 -2q63 -5 100 -61q42 -65 42 -209q0 -225 -95 -609q-66 -270 -140 -498h249q20 0 34 -14t14 -34t-14 -34t-34 -14h-369q-25 -3 -60 -3z" />
    <glyph glyph-name="three" unicode="3" horiz-adv-x="896" 
d="M317 -19q-102 0 -177 54q-63 48 -92.5 110t-37.5 110t-8 57q0 19 13.5 33t35.5 14q19 0 32 -13t15 -33l3 -23q8 -63 43 -120q55 -93 172 -93l26 1q90 16 148.5 88t87 156t29.5 143q0 73 -33 125t-87.5 80t-120.5 28q-76 0 -128 -36q-12 -8 -23 -8q-27 0 -43 26
q-6 11 -6 22q0 22 18 38q57 44 146.5 129t163 181t81.5 173v6q0 70 -67 130q-58 45 -110 45l-11 -1q-107 -43 -204 -140q-34 -34 -41 -42q-16 -18 -38 -18q-16 0 -30 11q-17 17 -17 38q0 16 11 30q4 5 38.5 41t92 81t130.5 79q9 8 22 12l15 3q58 20 119 20l30 -1
q166 -20 269 -224q33 -66 33 -131q0 -54 -22 -107q-65 -146 -270 -264q89 -24 167.5 -87.5t122.5 -180.5q19 -50 19 -117q0 -86 -41 -166q-89 -170 -344 -240q-70 -19 -132 -19z" />
    <glyph glyph-name="four" unicode="4" horiz-adv-x="786" 
d="M578 9q-34 0 -63.5 26t-38.5 81q-27 181 -41 469l-369 -99l-12 -1q-28 0 -44 29q-4 9 -4 19q0 24 23 41q59 41 83 177t24 303q0 204 -24 388l-1 7q0 17 13 31.5t35 15.5q18 0 31.5 -11.5t16.5 -30.5q26 -189 26 -405q0 -281 -61 -435l259 69q-4 122 -4 235q0 298 27 401
q11 39 40.5 57.5t65.5 18.5q37 0 71 -19.5t51 -57.5q38 -94 38 -466q0 -228 -11 -446.5t-21 -289.5q-9 -51 -40.5 -79t-69.5 -28z" />
    <glyph glyph-name="five" unicode="5" horiz-adv-x="812" 
d="M374 -25q-123 0 -213 75q-77 71 -111 163t-41.5 166t-7.5 79q0 20 14.5 34t33.5 14q20 0 34 -14t14 -34q0 -50 17 -129q29 -134 110 -206q55 -48 136 -51q31 16 73 74.5t75.5 143t33.5 173.5q0 18 -2 35q-17 169 -115 235q-40 25 -83.5 31.5t-81.5 6.5h-60l-52 -1
q-41 0 -72 11q-65 21 -65 361q0 100 8.5 184.5t27.5 119.5q13 21 53 21q32 0 70 -9q98 -15 359 -15h71q20 -1 33 -15t13 -34q-1 -20 -14.5 -33.5t-33.5 -13.5l-334 12q8 -47 8 -112q0 -138 -22 -295q56 26 136 26q152 0 243 -97q72 -77 106 -182t34 -199q0 -89 -37 -207
q-33 -108 -103 -199q-92 -119 -255 -119z" />
    <glyph glyph-name="six" unicode="6" horiz-adv-x="817" 
d="M409 37q-73 0 -144.5 39.5t-126.5 126.5t-81 228q-10 62 -10 132q0 165 51.5 349.5t141 333t206.5 215.5q32 17 55 17q34 0 50 -27t16 -57q0 -36 -21 -61q-50 -49 -107 -144t-98.5 -213t-44.5 -234q57 22 124 22q35 0 71 -10q102 -30 165.5 -121.5t63.5 -220.5
q0 -90 -38 -192q-34 -84 -109 -133.5t-164 -49.5zM496 245q55 0 87 43q36 48 38 142q0 104 -72 175t-168 71q-45 0 -91 -19l-1 -27l1 -45q4 -163 41 -235t98 -91q37 -14 67 -14z" />
    <glyph glyph-name="seven" unicode="7" horiz-adv-x="870" 
d="M371 0q-37 0 -65.5 28.5t-28.5 84.5l1 24q31 241 119 611.5t168 575.5l-515 -15l-2 -1q-19 0 -33 13.5t-15 33.5q0 20 14 34.5t33 14.5l94 5q93 4 217 9t215 5q34 0 60 -1q61 -1 115 -18.5t65 -81.5q1 -10 1 -22q0 -85 -42.5 -264t-101.5 -378.5t-111 -358.5t-75 -214
q-19 -43 -50 -64t-63 -21z" />
    <glyph glyph-name="eight" unicode="8" horiz-adv-x="863" 
d="M351 -3q-25 0 -50 2q-119 13 -206 122q-80 107 -80 249q0 161 103 298q72 96 164 187q-111 222 -111 354l1 23q14 123 80 186q75 70 168 70q137 0 213 -134q63 -110 63 -202q0 -77 -33.5 -144.5t-84.5 -127.5t-105 -115l-21 -22q50 -86 84 -135q8 -13 8 -27
q0 -23 -21 -40q-13 -8 -27 -8q-23 0 -39.5 22t-72.5 114q-40 -46 -69 -94q-46 -77 -46 -181q0 -67 18 -113.5t41 -75.5q35 -43 72 -63t66 -22q9 0 16 -4q125 49 186 209q21 56 21 111q0 142 -125 251q-17 16 -17 37q0 16 11 31q16 16 36 16q17 0 32 -11q75 -63 117.5 -146
t42.5 -176q0 -72 -28 -148q-119 -293 -407 -293zM354 928q57 56 105 110.5t77.5 105.5t29.5 98q0 16 -4 31q-17 62 -58 90.5t-85 28.5q-55 0 -100 -43q-41 -40 -51 -125l-1 -15q0 -98 87 -281z" />
    <glyph glyph-name="nine" unicode="9" horiz-adv-x="774" 
d="M546 -114q-34 0 -62 29q-66 66 -74 808q-38 -10 -80 -10q-48 0 -97 15q-106 34 -167 118.5t-61 196.5q2 130 90 209q77 65 175.5 88t172.5 24l1 3q12 45 42.5 67t66.5 22q37 0 70.5 -22t49.5 -64q31 -88 31 -411q0 -275 -16.5 -566t-28.5 -384q-10 -59 -42.5 -91
t-70.5 -32zM331 809q39 0 79 14q1 270 18 444q-176 -8 -269 -87q-57 -50 -58 -137q0 -118 84 -183q65 -51 146 -51z" />
    <glyph glyph-name="colon" unicode=":" horiz-adv-x="335" 
d="M151 708q-16 0 -32 5q-40 15 -70.5 56t-30.5 90q0 19 6 37q17 50 61.5 82t88.5 32q58 0 88 -58q22 -40 22 -86q0 -27 -8 -53q-16 -48 -50.5 -76.5t-74.5 -28.5zM151 -112q-16 0 -32 5q-40 15 -70.5 56t-30.5 90q0 19 6 37q17 50 62 82t90 32q14 0 28 -4q37 -14 58.5 -54
t21.5 -86q0 -27 -8 -53q-16 -48 -50.5 -76.5t-74.5 -28.5z" />
    <glyph glyph-name="semicolon" unicode=";" horiz-adv-x="466" 
d="M199 557q-16 0 -32 5q-41 14 -71 55.5t-30 90.5q0 18 6 37q17 50 61.5 82t88.5 32q57 0 88 -59q22 -39 22 -86q0 -27 -8 -52q-16 -49 -50.5 -77t-74.5 -28zM88 -316q-17 0 -17 9q0 18 75 73q95 71 95 143q0 16 -3.5 27.5t-6.5 18.5l-4 6l-9 -7q-9 -8 -23.5 -15.5
t-32.5 -7.5q-62 0 -93 124q-2 9 -2 19q0 47 40.5 93.5t93.5 46.5q79 0 130 -117q19 -48 19 -92q0 -70 -36 -128t-82.5 -100.5t-83.5 -66.5l-36 -23l-4 -1q-3 -1 -8.5 -1.5t-11.5 -0.5z" />
    <glyph glyph-name="less" unicode="&#x3c;" horiz-adv-x="947" 
d="M755 35q-58 0 -120 63q-78 77 -220 201q-96 84 -189 169q-218 199 -218 252v2q20 68 469 247q273 109 289 109q15 0 26 -11.5t11 -27.5q0 -25 -23 -36q-128 -56 -282 -128q-213 -101 -213 -115q0 -6 37.5 -37.5t96.5 -77.5q119 -93 247.5 -205.5t172.5 -190.5
q21 -46 21 -87q0 -53 -29.5 -90t-75.5 -37z" />
    <glyph glyph-name="equal" unicode="=" horiz-adv-x="883" 
d="M272 719q-101 0 -160 14q-53 18 -74 48.5t-21 61.5q0 34 17 59q19 19 132 27t236 8q152 0 237 -8q70 -9 102 -43t32 -70q0 -28 -18.5 -49.5t-51.5 -24t-90 -6.5q-220 -17 -341 -17zM315 350q-101 0 -160 14q-54 17 -75 48t-21 62q0 34 17 59q19 19 131 26.5t236 7.5
q152 0 238 -7q70 -9 102.5 -43.5t32.5 -70.5q0 -28 -18.5 -49.5t-51.5 -23.5t-91 -6q-219 -17 -340 -17z" />
    <glyph glyph-name="greater" unicode="&#x3e;" horiz-adv-x="948" 
d="M157 10q-46 0 -75 36t-29 89q0 42 21 88q44 78 171.5 189.5t246.5 204.5q60 48 98 79.5t38 38.5q0 15 -213 115q-161 75 -283 128q-22 11 -22 36q0 16 11 27t26 11q7 0 13 -2q358 -131 591 -245q153 -74 154 -110q0 -32 -63 -100q-95 -104 -345 -322q-142 -124 -220 -201
q-61 -62 -120 -62z" />
    <glyph glyph-name="question" unicode="?" horiz-adv-x="781" 
d="M303 300q-29 0 -53 26.5t-27 74.5l-3 92q-3 49 -3 101q0 66 8 172q4 35 32.5 96t68.5 136q53 97 97 194q47 105 48 181q0 103 -34 144t-89 41q-18 0 -38 -4q-85 -20 -145 -95q-67 -85 -81 -165q-3 -23 -10.5 -41t-27.5 -19h-3q-43 0 -43 52q0 46 33 134.5t91.5 168
t136.5 108.5q52 17 110 17q69 0 136 -26t115 -81.5t63 -143.5q9 -60 9 -112q0 -109 -31.5 -189.5t-78 -143t-95.5 -115.5q-68 -71 -111 -145v-340q0 -61 -23.5 -89.5t-51.5 -28.5zM300 -105q-16 0 -32 5q-40 15 -70.5 56t-30.5 90q0 19 6 37q17 50 62 82t90 32q14 0 28 -4
q37 -14 58.5 -54t21.5 -86q0 -27 -8 -53q-16 -48 -50.5 -76.5t-74.5 -28.5z" />
    <glyph glyph-name="at" unicode="@" horiz-adv-x="1609" 
d="M659 -74q-265 0 -424 131q-190 157 -190 497q0 336 167 572q129 181 313 290.5t381 133.5q48 6 93 6q172 0 294 -76.5t187 -213.5t65 -320q0 -187 -69 -354q-53 -132 -136 -220t-182 -106l-11 -1q-29 0 -49.5 19.5t-36 48t-27.5 57t-23 48t-24 19.5q-5 0 -42.5 -23
t-93.5 -55q-143 -80 -221 -80q-49 1 -97 33.5t-82.5 103t-34.5 186.5q0 98 33 233q40 143 135.5 229.5t211.5 125t212 38.5q62 0 106 -14t58 -40q17 -37 17 -240q0 -214 -14 -483v-3q0 -23 16 -38.5t37 -15.5q14 0 27 8q62 34 125.5 134t85.5 299q5 54 5 101q0 234 -108 359
q-79 91 -191 126q-36 13 -121 13q-79 0 -188 -19t-223.5 -69.5t-216 -142t-170.5 -235t-85 -348.5q-3 -44 -3 -84q0 -289 153 -415q124 -101 327 -101q86 0 164 14.5t133 31t77 26.5t37 10q28 0 28 -27q0 -86 -174 -136q-113 -33 -251 -33zM712 414q41 0 85 30t81.5 69
t61.5 69l24 30l67 575q-61 0 -119 -48.5t-107.5 -125.5t-87.5 -167t-59.5 -175.5t-21.5 -148.5q0 -108 76 -108z" />
    <glyph glyph-name="A" unicode="A" horiz-adv-x="763" 
d="M619 -37q-32 0 -60.5 25.5t-43.5 80.5q-15 61 -32 143l-337 24l-46 -182q-14 -36 -47 -36q-24 0 -38 19q-10 12 -10 28q0 5 341 1353q13 48 48 70q30 20 65 20q33 0 64 -17.5t50 -52.5q44 -99 78.5 -380t54.5 -572t20 -381q0 -68 -33.5 -105t-73.5 -37zM464 309
q-69 380 -107 762l-187 -740z" />
    <glyph glyph-name="B" unicode="B" horiz-adv-x="982" 
d="M154 -15q-34 0 -62 29t-37 89q-17 140 -27 359t-10 438q0 418 33 556q12 45 42.5 66.5t66.5 21.5q27 0 53 -12q58 12 120 12q164 0 317 -74q116 -56 193 -155t87 -241l1 -26q0 -207 -170 -357q-133 -118 -325 -188q241 -60 241 -198q-1 -120 -86 -198q-57 -50 -131 -75
q-119 -40 -266 -40l-4 1q-18 -8 -36 -8zM264 91q173 11 263 87q53 49 54 126q-1 42 -77.5 75.5t-207.5 50.5l-4 1q-17 -296 -27 -336zM299 558q53 15 122 41.5t141 66.5t133.5 95t100.5 126.5t39 161.5l-1 20q-8 114 -72.5 193.5t-161.5 125.5q-129 60 -273 60q-22 0 -43 -1
q28 -100 28 -409q0 -230 -13 -480z" />
    <glyph glyph-name="C" unicode="C" horiz-adv-x="1073" 
d="M550 -6q-111 0 -229 65q-89 49 -161 138q-160 197 -160 542q0 179 44.5 326.5t119 253.5t166 163.5t184.5 57.5q100 0 174 -38t125.5 -100t83.5 -135t48 -144.5t19 -129.5l-96 -5q0 8 -11.5 83.5t-50.5 166.5t-119 153q-74 -5 -145.5 -55t-130.5 -137.5t-94.5 -207
t-35.5 -262.5q0 -164 38 -279t96 -187t120.5 -105t111.5 -33q12 0 23 2q79 18 130 92.5t81 166t46 160.5q6 24 11 41t17.5 26t28.5 9q24 0 38 -18q11 -13 11 -30q0 -6 -2 -12q-17 -65 -58.5 -170.5t-112 -207.5t-172.5 -157v-1l-1 1q-62 -33 -137 -33z" />
    <glyph glyph-name="D" unicode="D" horiz-adv-x="1171" 
d="M159 -11q-34 0 -63 28t-38 87q-18 141 -28.5 360.5t-10.5 436.5q0 392 32 523q12 43 43 64t67 21q53 -1 94 -43q85 34 179 34q137 0 278 -78q110 -62 173 -144q116 -150 116 -360q0 -126 -32 -235.5t-67 -173.5q-185 -356 -440 -426q-63 -16 -117 -16q-45 0 -82 8
q-15 -42 -43.5 -64t-60.5 -22zM344 163q43 0 94 13q214 60 379 377q31 57 59.5 154t28.5 207q0 288 -239 424q-122 66 -236 66q-80 0 -138 -25q20 -114 20 -379q0 -226 -11 -463.5t-23 -367.5q29 -6 66 -6z" />
    <glyph glyph-name="E" unicode="E" horiz-adv-x="948" 
d="M182 -66h-5q-35 0 -65.5 21t-42.5 64q-31 129 -31 517q0 218 10.5 439.5t28.5 362.5q9 59 37.5 87.5t63.5 28.5q24 0 48 -14q2 0 4.5 0.5t452.5 0.5q20 0 34 -14t14 -34t-14 -34t-34 -14h-395l1 -10q8 -55 18 -207.5t17 -347.5q257 10 257 11h1q20 0 33.5 -13.5
t14.5 -33.5q0 -20 -13 -34t-33 -15l-257 -11q4 -128 4 -246q0 -218 -18 -356l549 15q21 0 35 -13.5t14 -34.5q0 -20 -13 -33.5t-33 -14.5l-585 -16q-39 -49 -98 -51z" />
    <glyph glyph-name="F" unicode="F" horiz-adv-x="928" 
d="M159 -11q-34 0 -63 28t-38 87q-18 142 -28.5 363t-10.5 439q0 388 31 518q13 43 43.5 64t66.5 21q59 -1 102 -51l584 -16q20 -1 33 -15t13 -34t-14 -33.5t-33 -13.5l-551 15q18 -138 18 -356q0 -119 -4 -247l257 -10q20 -1 33 -15t13 -34q-1 -21 -14.5 -34t-33.5 -13
l-258 10q-7 -194 -17 -346.5t-17 -208.5q-10 -57 -42.5 -87.5t-69.5 -30.5z" />
    <glyph glyph-name="G" unicode="G" horiz-adv-x="1182" 
d="M506 -24q-22 0 -45 3q-34 5 -90 25t-119.5 66t-120.5 128t-94 209.5t-37 313.5q0 179 41.5 326.5t109.5 253.5t152.5 163.5t169.5 57.5q92 0 160 -38t115.5 -100t77 -135t44.5 -144.5t17 -129.5l-95 -5v4q-1 21 -13.5 94t-48 159t-103.5 145q-89 -9 -171 -94t-136.5 -231
t-54.5 -336q0 -162 33.5 -276.5t85 -187t107.5 -106t100 -33.5q11 0 21 2q67 16 111.5 84t72.5 157t46 164l10 39l-240 9q-20 2 -33 15.5t-13 33.5q1 21 15 34t33 13l486 -19q20 -1 33 -15t13 -34q-1 -21 -15 -34t-33 -13l-148 6q-10 -44 -32.5 -114t-58.5 -149
t-86.5 -149.5t-117 -116t-149.5 -45.5z" />
    <glyph glyph-name="H" unicode="H" horiz-adv-x="809" 
d="M159 -11q-35 0 -63.5 28t-37.5 87q-18 142 -28.5 363t-10.5 439q0 388 31 518q12 43 43 64t67 21h3q79 -4 116 -83q33 -90 33 -426q0 -314 -21 -635l387 -15v1072q0 20 14.5 34t33.5 14q20 0 34 -14t14 -34v-1366q0 -20 -14 -34t-34 -14q-19 0 -33.5 14t-14.5 34v198
l-393 16q-7 -117 -15 -163q-9 -57 -41.5 -87.5t-69.5 -30.5z" />
    <glyph glyph-name="I" unicode="I" horiz-adv-x="552" 
d="M468 -20l-421 11q-20 1 -33 14.5t-13 33.5t13.5 34t32.5 14l98 -3l-4 15q-18 133 -29 341t-11 414q0 380 34 506l5 11l-93 2q-20 1 -33 15t-13 34t14 33.5t33 13.5l421 -11q20 -1 33.5 -14.5t13.5 -33.5q-1 -22 -14.5 -35t-33.5 -13l-94 2q1 0 1 -0.5t1 -1.5
q33 -84 33 -394q0 -253 -16 -517q-20 -326 -34 -372l110 -3q20 -1 33.5 -15t13.5 -34q-1 -21 -14.5 -34t-33.5 -13z" />
    <glyph glyph-name="J" unicode="J" horiz-adv-x="797" 
d="M364 -13q-153 0 -246 184q-48 105 -70.5 228.5t-29 225.5t-6.5 163q0 110 21 131q14 15 34 15q23 0 40 -22q8 -13 8 -27q0 -8 -2 -16q-4 -26 -4 -88q0 -90 13 -226t49.5 -258.5t105.5 -182.5q11 -8 21 -14q-9 43 -9 118q0 154 26.5 390.5t57.5 437t47 268.5q6 22 16 40
l-124 4q-20 1 -33.5 14.5t-13.5 33.5q1 21 15 34.5t33 13.5l402 -12q21 -1 34 -15.5t13 -34.5q-1 -20 -15 -33t-33 -13q-48 0 -95 2q11 -22 12 -55q3 -57 3 -131q0 -262 -30 -609.5t-75 -485.5q-13 -33 -39 -50l-5 -3q-15 -9 -33 -13q-46 -14 -88 -14z" />
    <glyph glyph-name="K" unicode="K" horiz-adv-x="910" 
d="M128 -8q-33 0 -59 28q-58 61 -58 715q0 226 10 425t32 289q13 44 43 66t66 22q36 -1 66.5 -21.5t44 -60t19 -122.5t5.5 -194q0 -143 -7 -312l501 414q14 11 31 11q21 0 37 -17q11 -15 11 -31q0 -21 -18 -37l-557 -461l524 -417q18 -17 18 -38q0 -16 -10 -30
q-15 -18 -38 -18q-15 0 -29 10l-481 383q-21 -364 -40 -482q-10 -59 -42.5 -90.5t-68.5 -31.5z" />
    <glyph glyph-name="L" unicode="L" horiz-adv-x="1048" 
d="M250 -48q-34 0 -63 4q-41 0 -76 23q-32 21 -47 58q-26 71 -26 310q0 253 20.5 541t35.5 379q10 52 42 79.5t68 27.5t65.5 -27.5t37.5 -84.5q27 -262 27 -610q0 -189 -9 -354t-28 -250q241 26 646 164q8 3 16 3q30 0 45 -32q3 -8 3 -16q0 -29 -33 -45q-51 -19 -178.5 -59
t-279.5 -75.5t-266 -35.5z" />
    <glyph glyph-name="M" unicode="M" horiz-adv-x="1121" 
d="M128 -44q-33 0 -59 28q-58 62 -58 725q0 224 10 419.5t31 284.5q13 46 44 67.5t67 21.5q6 0 12 -2h2q8 2 17 2q201 -24 353 -624q144 306 249 418q74 79 130 79q9 0 15 -1h4q35 0 64.5 -27t37.5 -84q27 -263 27 -611q0 -199 -10 -370.5t-31 -249.5q-12 -38 -41 -56.5
t-63 -18.5q-46 1 -78 22t-47 59q-26 71 -26 310q0 206 15 444.5t30 383.5q-78 -102 -207 -379q-26 -47 -73 -47q-5 0 -8 1q-55 7 -70 61q-82 330 -174 489q6 -84 6 -195q0 -276 -21.5 -600t-36.5 -427q-10 -59 -42.5 -91t-68.5 -32z" />
    <glyph glyph-name="N" unicode="N" horiz-adv-x="849" 
d="M189 -43q-46 1 -78 22t-47 59q-26 71 -26 307q0 252 21 541.5t36 381.5q10 51 41 78.5t68 27.5l14 -1q6 2 12 2q135 -12 276 -314q113 -240 212 -589v735q0 20 14.5 34t33.5 14q20 0 34 -14t14 -34v-1108q0 -19 -13 -33.5t-35 -14.5q-33 0 -47 37q-84 361 -194 672.5
t-213 451.5q22 -253 22 -564q0 -198 -10 -368.5t-31 -247.5q-12 -38 -41 -56.5t-63 -18.5z" />
    <glyph glyph-name="O" unicode="O" horiz-adv-x="863" 
d="M462 -1q-17 0 -36 2q-286 19 -367 337q-21 95 -21 196q0 154 41.5 287.5t110.5 176.5q38 19 65 19q31 0 54 -17q54 -42 54 -159q0 -77 -21 -172q-9 -43 -9 -102q0 -128 34 -274.5t85 -193.5q2 0 4 -2q21 2 23 3.5t3 1.5q68 18 111 98q67 124 67 340q0 180 -45 361
t-119 289q-60 88 -125 88l-13 -1q-86 -16 -117 -68q-18 -32 -18 -60q0 -20 -13.5 -34t-33.5 -14t-34 13t-15 34q0 35 18 81.5t65 86.5t132 56q14 2 29 2q28 0 61.5 -10.5t69 -39t72.5 -79.5q83 -121 132.5 -314t49.5 -387q0 -243 -79 -390q-63 -116 -168 -145
q-23 -10 -47 -10z" />
    <glyph glyph-name="P" unicode="P" horiz-adv-x="858" 
d="M183 -43q-43 1 -75 23.5t-47 63.5q-22 67 -22 277q0 276 26.5 618t43.5 450q11 57 43.5 87.5t69.5 30.5q34 0 61.5 -27.5t36.5 -84.5q32 4 69 4q147 0 252 -69q150 -102 170 -334q2 -27 2 -53q0 -183 -111 -307q-140 -146 -369 -184q-12 -289 -42 -411
q-13 -43 -43.5 -63.5t-64.5 -20.5zM337 551q186 35 294 150q86 97 86 241q0 22 -2 45q-15 188 -127 263q-80 52 -196 52q-34 0 -63 -3q12 -202 12 -454q0 -147 -4 -294z" />
    <glyph glyph-name="Q" unicode="Q" horiz-adv-x="1220" 
d="M1137 -331q-139 4 -237.5 71.5t-162 169.5t-97.5 210q-48 -55 -154 -76q-15 -3 -30 -3q-107 0 -202 129q-84 121 -133.5 314.5t-49.5 388.5q0 243 79 389q64 115 169 144q24 11 47 11q9 0 18 -2h18q286 -19 367 -337q21 -95 21 -196q0 -154 -41.5 -287.5t-110.5 -177.5
q-38 -19 -65 -19q-31 0 -54 17q-54 42 -54 159q0 78 21 172q9 43 9 102q0 128 -34 274.5t-85 193.5l-4 2q-12 -1 -23 -4q-2 0 -3 -1q-67 -17 -112 -97q-66 -124 -66 -339q0 -180 45 -361.5t119 -290.5q60 -87 124 -87l14 1q62 11 90.5 37.5t36.5 50.5t8 35v2q-5 24 -7 47
q-1 2 -1 11q0 18 12 31.5t31 15.5q23 0 36 -11.5t16 -30.5v-1q1 -15 19.5 -99.5t65.5 -190.5t134.5 -185.5t225.5 -85.5q20 0 34 -14.5t14 -34.5q-1 -20 -14.5 -33.5t-33.5 -13.5z" />
    <glyph glyph-name="R" unicode="R" horiz-adv-x="858" 
d="M182 -39q-84 2 -121 88q-22 67 -22 277q0 276 26.5 618t43.5 450q11 57 43.5 87t69.5 30q34 0 62 -27t37 -85q34 4 72 4q144 0 248 -68q150 -102 170 -335q2 -27 2 -53q0 -181 -111 -306q-83 -86 -184.5 -128.5t-184.5 -55.5l-1 -34q58 -71 110.5 -119.5t82.5 -52.5
q21 0 82.5 43.5t124.5 103.5q15 13 33 13q19 0 33.5 -15t14.5 -33q0 -19 -14 -34q-29 -29 -77 -69q-125 -105 -199 -105h-8q-79 11 -192 131q-12 -163 -32 -241q-13 -43 -43.5 -63.5t-65.5 -20.5zM337 556q186 35 294 150q86 96 86 241q0 22 -2 45q-26 315 -325 315
q-32 0 -61 -3q12 -203 12 -454q0 -148 -4 -294z" />
    <glyph glyph-name="S" unicode="S" horiz-adv-x="934" 
d="M519 -11q-16 0 -29 10q-34 0 -57 6q-34 6 -78 42t-71 125q-2 6 -2 13q0 15 10 28q14 20 38 20q32 0 46 -36q21 -82 80 -99q11 -3 23 -3q55 0 112 54q47 51 47 107q0 59 -81 171q-58 80 -133 171.5t-146 188t-118.5 191t-47.5 181.5q0 92 63 163q92 100 211 100
q56 0 115 -22q114 -47 200 -146.5t86 -185.5q0 -20 -14 -34t-34 -14t-34 14t-14 34q0 47 -64.5 125t-159.5 117q-42 16 -81 16q4 -10 4 -21q-2 -25 -2 -49q0 -93 26.5 -172t70.5 -148t97 -130.5t106 -117.5q75 -77 128.5 -147t64.5 -143q6 -42 6 -80q0 -135 -74 -220
q-48 -54 -121.5 -81.5t-172.5 -27.5z" />
    <glyph glyph-name="T" unicode="T" horiz-adv-x="981" 
d="M491 8q-41 1 -75 24q-32 22 -47 61q-23 68 -23 287q0 268 24.5 591.5t40.5 425.5q0 1 1 3.5t1 6.5l-365 9q-20 0 -33.5 14t-13.5 34t14 34t33 14l851 -20q19 0 32.5 -14t13.5 -34t-14 -34t-34 -14l-275 7l1 -9q22 -241 22 -573q0 -229 -11.5 -435t-35.5 -297
q-12 -41 -42 -61t-65 -20z" />
    <glyph glyph-name="U" unicode="U" horiz-adv-x="946" 
d="M744 -10q-41 1 -74 23.5t-48 61.5q-23 68 -23 281v30q-114 -310 -280 -327h-12q-60 0 -107 48q-108 124 -108 544q0 168 14 333q35 443 63 467q14 12 32 12q22 0 36 -17q12 -14 12 -32l-1 -7q-24 -165 -41.5 -370t-17.5 -393q0 -378 81 -471q18 -18 37 -18q67 3 126 102
q107 181 183 577q12 192 25.5 341.5t22.5 201.5t38 75t64 23q38 0 71 -26t39 -73q22 -238 22 -567q0 -231 -11.5 -439t-35.5 -299q-12 -41 -42.5 -61t-64.5 -20z" />
    <glyph glyph-name="V" unicode="V" horiz-adv-x="1017" 
d="M519 -3q-61 0 -100 48q-62 87 -148.5 353t-158.5 533q-89 337 -89 384q0 51 32 77.5t71 26.5q30 0 57.5 -15.5t43.5 -47.5q86 -183 193.5 -484t173.5 -546l289 1165q4 16 17 26t30 10l11 -1q36 -15 36 -48l-1 -11l-340 -1372q-14 -74 -82 -93q-17 -5 -35 -5z" />
    <glyph glyph-name="W" unicode="W" horiz-adv-x="1419" 
d="M350 -72q-31 0 -61 15t-49 46q-50 94 -102.5 369t-89.5 548q-41 301 -42 373q0 56 32 83.5t71 27.5q33 0 63 -19t43 -57q62 -191 130 -500t103 -561l284 710q13 31 46 31q33 -3 44 -33l230 -683l232 931q4 17 17 26.5t30 9.5q23 0 38 -18q10 -13 10 -29q0 -5 -274 -1103
q-10 -32 -45 -36q-15 0 -28 8.5t-19 24.5l-240 714l-309 -771v-3q-4 -45 -31 -71q-33 -33 -83 -33z" />
    <glyph glyph-name="X" unicode="X" horiz-adv-x="1020" 
d="M55 -30q-13 0 -26 8q-22 17 -22 40q0 14 7 26l412 645q-61 211 -106 384q-58 226 -58 262q0 52 32 78.5t71 26.5q30 0 57.5 -15.5t43.5 -47.5q69 -145 156 -381l268 420q16 22 40 22q13 0 26 -8q22 -17 22 -40q0 -14 -7 -26l-308 -482q83 -232 144 -439q65 -225 68 -314
q0 -42 -23 -69q-36 -42 -94 -42q-61 0 -100 48q-71 93 -196 502l-367 -576q-17 -22 -40 -22z" />
    <glyph glyph-name="Y" unicode="Y" horiz-adv-x="1045" 
d="M665 -74q-82 0 -139.5 32.5t-94 78.5t-56.5 89q-14 28 -37 102.5t-23 134.5q0 71 47 71q23 0 40 -22q8 -13 8 -27l-1 -12q0 -20 11 -79.5t41 -125.5t86 -109q50 -37 118 -37l28 2q-4 33 -4 93q0 150 18.5 408t40.5 475q-77 -93 -166 -181q-210 -208 -346 -208
q-73 0 -116 59q-48 68 -48 216q0 105 18.5 217t38.5 194.5t27 105.5q5 16 18 25.5t28 9.5q24 0 39 -19q9 -13 9 -28q0 -7 -2 -14q-30 -108 -55.5 -246.5t-25.5 -250.5q0 -110 31 -154q12 -19 39 -19q116 0 346 253q99 107 185 220q9 61 15 87q13 49 44 73.5t66 24.5
q37 0 67 -29t33.5 -87.5t3.5 -132.5q0 -262 -30 -610q-40 -454 -98 -520q-52 -60 -204 -60z" />
    <glyph glyph-name="Z" unicode="Z" horiz-adv-x="939" 
d="M357 14q-92 0 -127 9q-34 12 -57.5 38.5t-23.5 67.5v9q17 162 136.5 525t236.5 634l-475 21q-20 1 -33 14.5t-13 34.5q1 20 14 33t32 13h4l77 4q76 5 181 5q185 0 302 -20q149 -26 149 -87q-3 -50 -69 -303q-59 -221 -135 -466t-142 -394l443 -20q20 -1 33 -14.5
t13 -34.5q-1 -20 -14.5 -33.5t-33.5 -13.5l-2 1l-85 -6q-86 -6 -202 -11.5t-209 -5.5z" />
    <glyph glyph-name="bracketleft" unicode="[" horiz-adv-x="663" 
d="M327 -166q-216 0 -264 44q-20 28 -29 213t-9 428q0 220 6.5 438.5t18 364.5t26.5 160q21 9 84 9q97 0 236.5 -16t205.5 -35q11 -4 17.5 -13t6.5 -20q-1 -20 -14 -27q-20 -10 -60 -10q-27 0 -61 2.5t-71 2.5q-41 0 -78 -8q-83 -17 -91 -99l-3 -37q-65 -657 -65 -1031
q0 -232 35 -243q86 -18 236 -24q19 -1 31.5 -15t12.5 -33q-1 -21 -13.5 -34t-30.5 -14q-52 -3 -127 -3z" />
    <glyph glyph-name="backslash" unicode="\" horiz-adv-x="851" 
d="M716 -411q-34 0 -92.5 91t-125.5 273q-86 236 -196.5 550t-195.5 588.5t-95 391.5l-1 38q0 86 21.5 146.5t67.5 60.5q72 0 182 -166q66 -114 152 -466t166 -727q69 -319 116 -508q32 -130 32 -198q0 -74 -31 -74z" />
    <glyph glyph-name="bracketright" unicode="]" horiz-adv-x="640" 
d="M307 -165q-207 0 -231 26q-12 13 -13 32q0 20 13.5 34.5t33.5 14.5q154 0 236 13q50 17 50 460q0 342 -24 802l-2 49q-6 93 -109 109q-46 7 -93 7l-67 -1q-33 0 -58 4q-40 6 -42 33v2q0 24 25 34q56 14 170.5 23t214.5 9q107 0 143 -14q23 -21 23 -375q0 -230 -10.5 -509
t-28 -484t-40.5 -235q-39 -34 -191 -34z" />
    <glyph glyph-name="asciicircum" unicode="^" horiz-adv-x="689" 
d="M595 1051q-29 0 -65.5 34.5t-64.5 80.5q-42 70 -131 196l-85 118l-170 -295q-12 -19 -33 -19q-16 0 -27 11t-11 25q0 8 4 16q89 191 172 310q58 83 98 83q50 0 128 -71.5t142 -173.5q82 -129 82 -242q0 -73 -39 -73z" />
    <glyph glyph-name="underscore" unicode="_" horiz-adv-x="1317" 
d="M433 -73q-161 0 -254 14q-85 18 -118.5 48.5t-33.5 61.5q0 34 27 59q30 19 209 27t376 8q241 0 376 -8q111 -9 163 -43t52 -70q0 -29 -29.5 -50t-83.5 -24l-142 -6q-349 -17 -542 -17z" />
    <glyph glyph-name="grave" unicode="`" horiz-adv-x="1024" 
 />
    <glyph glyph-name="a" unicode="a" horiz-adv-x="1093" 
d="M317 -49q-115 0 -200 65q-103 84 -103 248q0 36 5 77q23 142 109 226q127 125 269 125q105 0 216 -60q57 -32 96 -72q19 48 34 95q3 53 14 81q10 21 37 31t60 10q38 0 75 -12t56 -35q32 -47 44 -175t12 -258q0 -89 -3.5 -158t-9 -96t-34.5 -42t-65 -15q-35 0 -67 15.5
t-44 48.5q-38 123 -61 317q-112 -238 -251 -348q-87 -68 -189 -68zM329 48q84 8 167.5 115t153.5 259v1q0 63 -110 132q-76 41 -142 41q-24 0 -45 -6q-56 -16 -123 -78.5t-88 -179.5q-5 -37 -5 -68q0 -131 69 -181q45 -35 109 -35h14z" />
    <glyph glyph-name="b" unicode="b" horiz-adv-x="948" 
d="M155 -11q-34 0 -62.5 28.5t-37.5 89.5q-17 140 -27 358.5t-10 436.5q0 416 33 554q12 44 42.5 65.5t66.5 21.5q37 0 70.5 -21.5t49.5 -62.5q32 -91 32 -419l-1 -97q111 41 213 41q122 0 218 -64q150 -105 150 -301q0 -82 -24 -159t-57.5 -139t-66.5 -100
q-69 -81 -162 -132.5t-195 -51.5q-66 0 -133 26q-16 -36 -43 -55t-56 -19zM388 133q83 0 156.5 44t126.5 107q29 34 57.5 88t48 119t19.5 131q0 144 -109 219q-70 47 -164 47q-100 0 -214 -49q-6 -208 -16.5 -393.5t-19.5 -285.5q58 -27 115 -27z" />
    <glyph glyph-name="c" unicode="c" horiz-adv-x="1146" 
d="M542 -3q-54 0 -124 16t-143 51t-135 92t-101 138.5t-39 190.5q0 114 57.5 223.5t154 190t216.5 112.5q51 12 96 12q122 0 219 -78q62 -50 99 -105l6 -8q15 -16 15 -36q0 -17 -12 -31q-10 -11 -22 -11q-19 0 -39 19l-3 5q-14 21 -46 58.5t-80 69.5t-109 32q-38 0 -81 -18
q-63 -31 -111.5 -113.5t-77 -176.5t-28.5 -151q0 -67 23 -119.5t57 -90.5t69 -62q65 -47 132 -71t116 -24l21 1q53 0 133.5 25t223.5 124q13 9 27 9q23 0 40 -21q9 -13 9 -28q0 -23 -21 -39q-154 -105 -286.5 -145.5t-255.5 -40.5z" />
    <glyph glyph-name="d" unicode="d" horiz-adv-x="948" 
d="M757 -48q-29 0 -56 19t-43 55q-66 -26 -132 -26q-102 0 -195 52q-145 80 -228 233q-82 148 -82 298q0 196 150 300q96 65 219 65q101 0 212 -41l-1 97q0 328 31 418q17 42 50.5 63.5t69.5 21.5t67 -21.5t43 -65.5q33 -138 33 -554q0 -219 -10 -437.5t-27 -358.5
q-9 -60 -37.5 -89t-63.5 -29zM526 96q56 0 114 27q-10 100 -20.5 285.5t-15.5 393.5q-114 49 -214 49q-94 0 -165 -47q-108 -75 -108 -219q0 -66 19.5 -131t48 -119t57.5 -88q53 -62 126.5 -106.5t157.5 -44.5z" />
    <glyph glyph-name="e" unicode="e" horiz-adv-x="931" 
d="M433 14q-61 0 -135.5 21t-142 66t-111.5 116t-44 170q0 87 45 179t123 154q83 67 195 69q132 0 241 -72q45 -30 70 -57.5t25 -43.5q0 -19 -15 -33l-390 -357q24 -25 50 -39q76 -35 147 -35q72 0 134.5 24t108.5 52.5t68 45.5l13 9q12 8 26 8q24 0 41 -22q8 -13 8 -26
q0 -24 -22 -41q-54 -34 -94 -63q-32 -22 -82.5 -51t-116.5 -51.5t-142 -22.5zM237 304l339 310q-12 8 -24 19q-17 15 -37 27.5t-45 12.5h-3q-81 -9 -131.5 -56t-83 -112.5t-32.5 -121.5q0 -43 17 -79z" />
    <glyph glyph-name="f" unicode="f" horiz-adv-x="1046" 
d="M418 -12q-47 0 -85.5 29t-51.5 78q-25 96 -52.5 233.5t-48 296t-20.5 313.5q0 146 25 275q54 281 250 359q60 22 117 31l1 1q8 3 18 3l10 -1l34 1q89 0 165 -41q86 -50 135 -123t69.5 -132.5t21 -66t0.5 -12.5q0 -16 -10 -29q-15 -18 -38 -18q-16 0 -29.5 10.5
t-17.5 27.5q0 1 -9 30.5t-29 72.5t-54.5 85.5t-86.5 71t-117 28.5q-19 0 -38 -2q-154 -83 -154 -464q0 -204 35 -423l164 55q8 2 15 2q30 0 46 -32q2 -8 2 -15q0 -30 -32 -46l-180 -60q19 -109 82 -365q4 -17 4 -33q0 -44 -26 -80.5t-71 -52.5q-22 -7 -44 -7z" />
    <glyph glyph-name="g" unicode="g" horiz-adv-x="1018" 
d="M526 -153q-39 0 -67 12q-75 31 -110 116q-39 93 -39 231q0 80 9 132q3 18 16.5 30t30.5 12q22 0 37 -17q12 -14 12 -31l-1 -7q-7 -52 -7 -114q0 -75 14.5 -146.5t51.5 -104.5q18 -17 53 -17q24 0 62 12l1 1q14 5 26 11q43 48 57 207t14 337q0 101 -4 283
q-44 -61 -95.5 -112.5t-110.5 -83.5t-123 -32q-25 0 -51 6q-186 44 -253 231q-24 71 -24 144q0 77 24.5 149t70.5 129q95 114 200 114q18 0 36 -3q78 -16 141 -77.5t109 -138t72 -138.5l-1 87q0 95 6 164q10 81 55.5 119t94.5 38q54 -3 88.5 -38t37.5 -90q6 -136 6 -277
q0 -238 -25.5 -465t-91.5 -396t-184 -240q-21 -14 -46 -20q-51 -17 -92 -17zM352 662q47 0 94 29t90.5 77t82.5 105l-1 2q-18 51 -59 132.5t-98 150.5t-122 84h-2q-7 2 -15 2q-63 0 -128 -80q-35 -43 -53.5 -100t-18.5 -117q0 -125 75 -211q43 -49 126 -71q14 -3 29 -3z" />
    <glyph glyph-name="h" unicode="h" horiz-adv-x="963" 
d="M788 -25q-10 0 -23 9l-4 3q-35 22 -46.5 75.5t-16.5 136.5q-9 108 -17 162q-11 69 -34.5 111t-67.5 42q-61 0 -116 -32.5t-100.5 -81t-79.5 -97.5q-9 -131 -16 -181q-9 -58 -41.5 -89.5t-70.5 -31.5q-34 0 -62.5 28.5t-37.5 89.5q-17 140 -27 358.5t-10 436.5
q0 416 33 554q12 44 42.5 65.5t66.5 21.5q37 0 70 -21.5t50 -62.5q31 -87 31 -412q0 -286 -18 -593q137 144 286 144q69 0 110 -38q71 -66 92 -227q8 -70 14 -157q2 -61 10 -101l2 -10q6 -29 6 -55q0 -47 -25 -47z" />
    <glyph glyph-name="i" unicode="i" horiz-adv-x="537" 
d="M319 -2q-26 0 -48.5 18.5t-30.5 56.5q-18 107 -30 279t-12 323q0 162 17 242q8 27 30 39.5t48 12.5q29 0 55.5 -14t39.5 -41q31 -73 31 -369q0 -152 -6.5 -289.5t-12.5 -183.5q-6 -36 -29.5 -55t-51.5 -19zM297 1146l-27 36q-28 37 -63 91.5t-62 113t-27 102.5
q0 55 53 66l10 1q22 0 40.5 -17t34.5 -41.5t29 -48.5q18 -34 31 -47l2 -1q5 0 21 25q11 18 25 35.5t30 17.5q5 0 10 -2q27 -15 27 -49q0 -36 -20.5 -84t-46.5 -93t-47 -75z" />
    <glyph glyph-name="j" unicode="j" horiz-adv-x="781" 
d="M250 -19q-39 0 -67 12q-75 31 -110 117q-39 93 -39 231q0 80 9 132q3 18 17 29.5t31 11.5q22 -1 35 -15.5t13 -31.5l-1 -7q-7 -52 -7 -115q0 -75 14.5 -146t51.5 -104q18 -17 53 -17q24 0 63 12q14 5 26 12q43 47 57 205t14 336q0 101 -4 290q-5 141 -5 258q0 103 6 177
q10 81 55 118.5t92 37.5h4q53 -2 87.5 -37t37.5 -91q6 -136 6 -276q0 -238 -25.5 -465.5t-91.5 -396t-184 -239.5q-21 -15 -46 -21q-51 -17 -92 -17zM541 1683l-27 36q-28 37 -63 91t-62 112.5t-27 102.5q0 55 53 66l10 1q22 0 40.5 -17t34 -41t28.5 -47q18 -36 32 -49l2 -1
q5 0 20 25q11 19 25.5 36.5t30.5 17.5q4 0 9 -2q27 -15 27 -49q0 -36 -20.5 -84t-46 -93t-46.5 -75z" />
    <glyph glyph-name="k" unicode="k" horiz-adv-x="1142" 
d="M177 -15q-35 0 -64.5 25t-39.5 78q-23 142 -37 368.5t-14 433.5q0 270 25 365q11 37 40.5 55t64.5 18q37 0 71.5 -19t52.5 -56q38 -92 39 -443l466 177q8 3 16 3q30 0 46 -31q3 -9 3 -17q0 -29 -31 -45l-495 -187q69 -104 151.5 -208t159 -175t128.5 -76h11q90 0 168 73
q52 47 72 83q16 24 43 24q12 0 24 -6q23 -17 23 -42q0 -12 -7 -24.5t-25 -37.5q-23 -31 -65 -69q-105 -97 -233 -97q-78 0 -166 70q-138 110 -292 328q-5 -165 -12.5 -292t-15 -175t-39 -74.5t-68.5 -26.5z" />
    <glyph glyph-name="l" unicode="l" horiz-adv-x="381" 
d="M148 -40q-34 0 -62.5 28.5t-37.5 89.5q-17 140 -27 358.5t-10 436.5q0 416 33 554q12 44 42.5 65.5t66.5 21.5q37 0 70.5 -21.5t49.5 -62.5q31 -89 31 -413q0 -272 -16 -558t-28 -378q-9 -58 -41.5 -89.5t-70.5 -31.5z" />
    <glyph glyph-name="m" unicode="m" horiz-adv-x="1433" 
d="M165 -85q-34 0 -63.5 27.5t-38.5 84.5q-20 142 -31.5 366.5t-11.5 439.5q0 343 29 460q12 41 41.5 61t65.5 20q37 0 71 -20.5t51 -59.5q14 -35 21 -105q120 147 239 147q16 0 32 -3q73 -17 117.5 -129t68 -274t31.5 -330q93 290 221 383q46 31 95 31q16 0 32 -3
q158 -38 219 -364q41 -222 41 -495q0 -37 -0.5 -57.5t-14.5 -34.5t-34 -14t-34 14.5t-14 34.5l1 58q0 160 -19 332.5t-59.5 293.5t-104.5 138q-5 2 -13 2q-15 0 -41 -16q-68 -51 -123.5 -177t-92.5 -262.5t-52 -217.5q-3 -18 -16 -28.5t-30 -10.5q-24 1 -36.5 15t-12.5 33
v22q0 250 -20.5 466.5t-53.5 350.5t-73 145q-7 1 -15 1q-37 0 -77 -28t-78.5 -73t-72.5 -98q3 -88 3 -187q0 -249 -13 -497t-24 -329q-9 -54 -41 -83.5t-69 -29.5z" />
    <glyph glyph-name="n" unicode="n" horiz-adv-x="878" 
d="M166 -84q-34 0 -63.5 27t-38.5 85q-20 141 -32 365t-12 439q0 344 30 462q11 41 41.5 61t65.5 20q37 0 71 -20q41 -25 57 -79q123 152 240 152q56 0 106 -36q80 -65 121 -257.5t54 -430.5t13 -425q0 -169 -4 -249q-18 -44 -53 -44q-18 0 -32.5 13.5t-14.5 33.5
q7 105 7 225q0 218 -13.5 447t-45.5 397t-88 213q-23 17 -50 17q-10 0 -23 -3q-92 -28 -198 -188q9 -127 9 -289q0 -248 -13 -495.5t-24 -327.5q-9 -54 -40.5 -83.5t-69.5 -29.5z" />
    <glyph glyph-name="o" unicode="o" horiz-adv-x="847" 
d="M381 0l-15 1q-149 6 -254 100q-103 102 -103 249q0 20 2 40q15 126 69.5 204.5t121 118.5t116.5 48l9 1q18 0 31 -11q17 -14 17 -38q0 -17 -10 -29.5t-30 -16.5q-7 -1 -38.5 -13t-72.5 -42q-99 -75 -117 -231q-2 -17 -2 -34q0 -106 73 -176q77 -69 191 -74q13 0 24 1
q50 15 106.5 86.5t76.5 148.5q2 8 2 17q0 83 -148 203q-41 33 -41 91q0 28 10 52q31 66 87 66q31 0 89 -23.5t116 -95t84 -216.5q7 -44 7 -84q0 -280 -337 -336q-22 -4 -44 -5q-11 -2 -20 -2z" />
    <glyph glyph-name="p" unicode="p" horiz-adv-x="894" 
d="M165 -23q-34 0 -63 27.5t-38 84.5q-20 143 -32 368t-12 441q0 341 29 457q12 41 42 61t65 20q32 0 61.5 -15t49.5 -44q64 12 147 12q169 0 278 -69q116 -74 138 -222q5 -31 5 -60q0 -122 -73.5 -226.5t-209.5 -176.5q-123 -63 -246 -69q-6 -169 -14.5 -298.5
t-15.5 -177.5q-9 -54 -41.5 -83.5t-69.5 -29.5zM309 662q83 3 198 59q72 35 137 101q95 95 95 215q0 22 -4 46q-16 106 -95 157q-84 53 -223 53q-67 0 -122 -9q18 -147 18 -371q0 -122 -4 -251z" />
    <glyph glyph-name="q" unicode="q" horiz-adv-x="894" 
d="M693 -3q-37 0 -69 29.5t-41 83.5q-7 48 -15.5 177.5t-14.5 298.5q-124 6 -246 69q-136 72 -209.5 176.5t-73.5 225.5q0 30 5 61q23 146 137 222q109 69 278 69q84 0 148 -12q19 29 49 44t61 15q35 0 65 -20t42 -61q30 -117 30 -462q0 -215 -12 -439t-32 -366
q-9 -57 -38 -84t-64 -27zM550 682q-4 129 -4 251q0 224 18 371q-55 9 -123 9q-138 0 -222 -53q-80 -51 -96 -157q-3 -23 -3 -45q0 -120 94 -216q65 -65 137 -101q115 -56 199 -59z" />
    <glyph glyph-name="r" unicode="r" horiz-adv-x="907" 
d="M180 -13q-37 0 -69 29.5t-41 83.5q-11 81 -24 329.5t-13 497.5q0 347 34 439q17 39 51 59.5t71 20.5q35 0 65 -20t42 -61q8 -30 13 -77q154 146 269 146q74 0 127 -35q101 -67 142 -219q21 -76 23 -141q0 -18 -12.5 -31.5t-32.5 -15.5q-22 0 -35.5 13t-15.5 32
q0 10 -5 43q-11 90 -48 161q-51 97 -143 97q-52 0 -124 -53.5t-135 -120.5q6 -121 6 -267q0 -214 -11.5 -435.5t-31.5 -362.5q-9 -57 -38.5 -84.5t-63.5 -27.5z" />
    <glyph glyph-name="s" unicode="s" horiz-adv-x="740" 
d="M449 -6q-51 0 -101 28t-91 65t-68 68t-34 41q-10 14 -10 29q0 22 19 38q14 10 29 10q22 0 38 -19q28 -36 66.5 -73.5t79 -64t72.5 -26.5h9q10 2 20 10q1 0 1.5 0.5t1.5 1t1 1.5q16 12 31 48q7 17 7 35q0 41 -27.5 90t-71.5 103q-46 58 -99 119q-93 103 -177 219
q-131 180 -131 359q0 82 22 172t72 157q74 90 181 90q105 0 185 -57q8 -3 12 -9q73 -59 115.5 -146t59.5 -180.5t17 -164.5q0 -20 -14 -34t-34 -14t-34 14.5t-14 33.5q0 68 -20 166q-36 170 -136 250q-9 3 -23 3q-42 0 -77 -48q-51 -81 -51 -198q0 -80 26 -162.5t81 -147.5
q80 -90 149 -177.5t113 -172t44 -168.5q0 -146 -150 -258q-38 -27 -70 -30z" />
    <glyph glyph-name="t" unicode="t" horiz-adv-x="678" 
d="M337 -35q-37 0 -69.5 29t-41.5 84q-11 79 -23.5 325.5t-12.5 494.5v20l-142 4q-20 1 -33.5 15t-13.5 34q1 21 15 34t33 13l142 -4q3 240 33 329q17 39 50.5 59.5t70.5 20.5q36 0 66 -20t42 -61q24 -102 28 -336l115 -4q20 -1 33 -14.5t13 -33.5q-1 -21 -14.5 -34.5
t-33.5 -13.5l-112 3v-25q0 -215 -11.5 -440t-31.5 -368q-9 -57 -38.5 -84t-63.5 -27z" />
    <glyph glyph-name="u" unicode="u" horiz-adv-x="998" 
d="M742 -16q-35 0 -63 17t-34 50q-9 68 -9 233l1 89q-45 -47 -97 -86t-111.5 -63t-124.5 -24q-124 0 -190 94q-57 87 -57 239q0 104 17.5 190.5t24.5 107.5q15 35 47 35q6 0 13 -2q35 -14 35 -46q0 -6 -2 -13q-12 -43 -25.5 -119t-13.5 -156q0 -121 41 -182q34 -52 110 -52
q68 0 130 36q110 63 208 196q13 254 56 322q19 27 56.5 41.5t75.5 14.5q32 0 58 -11.5t35 -35.5q14 -48 14 -143q0 -147 -25 -342t-59 -315q-12 -38 -44 -56.5t-67 -18.5z" />
    <glyph glyph-name="v" unicode="v" horiz-adv-x="1139" 
d="M584 -17q-69 0 -114 42q-70 77 -167 312.5t-177 471.5q-102 299 -102 339q0 45 36 68.5t81 23.5q33 0 64 -14t49 -42q97 -161 218 -427.5t195 -482.5l325 1030q5 14 20 23t33 9l12 -1q42 -13 42 -42q0 -5 -384 -1223h-1q-15 -65 -91 -83q-19 -4 -39 -4z" />
    <glyph glyph-name="w" unicode="w" horiz-adv-x="1334" 
d="M328 -18q-29 0 -56.5 12.5t-46.5 37.5q-47 79 -96 307t-83 454q-37 245 -39 310q0 46 29.5 68.5t66.5 22.5q31 0 59 -16t40 -47q58 -158 122 -414.5t97 -464.5l266 588q13 26 43 26q31 -3 42 -28l215 -566l218 772q4 14 16.5 22t28.5 8q22 0 35 -15q9 -11 9 -25
q0 -4 -257 -913q-3 -13 -15 -21.5t-28 -8.5q-15 0 -26.5 7.5t-16.5 19.5l-226 592l-289 -639v-2q-3 -38 -29 -60q-32 -27 -79 -27z" />
    <glyph glyph-name="x" unicode="x" horiz-adv-x="1148" 
d="M1051 -37q-27 0 -46 18l-415 461q-141 -329 -220 -403q-45 -38 -115 -38q-64 0 -105 34q-26 22 -26 56q3 70 78 251q68 167 162 353l-348 386q-8 10 -8 20q0 20 25 34q14 6 29 6q27 0 46 -18l302 -337q99 189 176 306q18 26 49 38.5t65 12.5q44 0 80.5 -21.5t36.5 -62.5
q0 -29 -66 -211q-50 -139 -119 -308l464 -518q9 -10 9 -21q0 -19 -25 -32q-14 -6 -29 -6z" />
    <glyph glyph-name="y" unicode="y" horiz-adv-x="986" 
d="M627 -5q-77 0 -131.5 26.5t-89 64t-53.5 72.5q-13 23 -34.5 83.5t-21.5 110.5q0 58 43 58q23 0 39 -18q8 -10 8 -21q0 -5 -2 -11q0 -18 10.5 -65.5t38.5 -101.5t81 -89q47 -30 112 -30l26 1q-4 27 -4 77q0 124 17 334t38 387q-72 -76 -156 -148q-196 -170 -325 -170
q-69 0 -109 48q-46 56 -46 178q0 86 17.5 177.5t36.5 158.5t25 86q5 13 17 21t26 8q7 0 13 -2q33 -12 33 -38q0 -5 -2 -11q-29 -88 -52.5 -201t-23.5 -205q0 -42 7 -74q14 -67 56 -68q63 0 149 59q164 112 354 328q8 50 13 72q12 39 42 59.5t62 20.5q35 0 63 -24t31.5 -72
t3.5 -108q0 -214 -29 -499q-37 -372 -91 -425q-49 -49 -192 -49z" />
    <glyph glyph-name="z" unicode="z" horiz-adv-x="940" 
d="M357 -7q-91 0 -126 6q-34 8 -58 25.5t-24 45.5v4q17 107 137 344t236 415l-475 13q-20 1 -33 10t-13 22q2 14 15.5 22.5t34.5 8.5q1 0 76.5 2.5t179.5 2.5q453 0 453 -69q-3 -35 -69 -198q-58 -145 -134 -305t-142 -258l443 -13q20 -1 33 -10t13 -22q-1 -14 -15 -22.5
t-34 -8.5q-1 0 -86.5 -3.5t-202 -7.5t-209.5 -4z" />
    <glyph glyph-name="braceleft" unicode="{" horiz-adv-x="621" 
d="M456 -156q-84 0 -190.5 36t-152.5 107q-34 63 -34 154q0 56 9.5 111t20.5 101q15 61 15 92q0 22 -12.5 37.5t-31 25t-37 14.5t-30.5 7l-13 2l203 247l-21 51q-21 51 -44 142.5t-34 214.5l-1 33q0 99 41 171t101 118.5t122 69t103 22.5q36 0 47 -16l1 -2q0 -12 -41 -45
q-37 -31 -85 -82.5t-88 -125.5q-53 -100 -53 -257q0 -47 5.5 -78.5t13.5 -63.5q14 -51 28 -152l1 -9q0 -27 -17.5 -50.5t-43.5 -44t-54 -39.5t-48 -36.5t-20 -32.5q0 -19 39 -35q67 -27 88.5 -66.5t21.5 -91.5q0 -34 -4 -72q-6 -45 -6 -95q0 -27 3 -55q9 -68 52.5 -114
t97.5 -75.5t94.5 -46t44.5 -23.5t4 -12q0 -18 -26.5 -27t-68.5 -9z" />
    <glyph glyph-name="bar" unicode="|" horiz-adv-x="284" 
d="M111 -413q-24 0 -45 41t-27 127q-12 199 -19 508t-7 619q0 603 24 802q8 64 30 94.5t48 30.5t50 -31t36 -90q23 -128 23 -595q0 -388 -11.5 -795t-20.5 -538q-7 -83 -30.5 -128t-50.5 -45z" />
    <glyph glyph-name="braceright" unicode="}" horiz-adv-x="622" 
d="M131 -165q-42 0 -69 9t-27 28q0 5 4.5 12t45 23.5t94.5 45.5t97 75.5t52 114.5q3 29 3 57q0 50 -5 94q-4 38 -4 72q0 52 21.5 91.5t87.5 66.5q39 16 39 35q0 15 -20 32t-48 36t-53.5 39.5t-43.5 44.5t-18 51l1 9q14 101 28 152q8 32 13.5 63.5t5.5 78.5q0 36 -4 87
q-10 98 -49.5 172t-88 125.5t-87 83t-38.5 43.5l1 2q11 16 47 16q41 0 103 -22.5t122 -69t101 -118.5t41 -171l-1 -33q-11 -123 -34 -214.5t-44 -143.5l-21 -51l204 -247l-13 -2q-12 -2 -30.5 -7t-37 -15t-31.5 -25t-13 -38q0 -31 16 -92q10 -46 19.5 -101t9.5 -111
q0 -91 -34 -154q-46 -72 -152 -108t-190 -36z" />
    <glyph glyph-name="asciitilde" unicode="~" horiz-adv-x="1255" 
d="M871 381q-39 0 -72 26q-38 19 -70 57q-27 31 -50 65q-33 51 -76.5 92.5t-120.5 52.5q-16 0 -41 -5q-62 -14 -85 -23q-118 -52 -226 -124q-22 -13 -43 -13q-20 0 -34.5 10t-14.5 26q0 17 22 39q71 65 155 130q172 135 311 135q74 0 148 -44q45 -29 79 -69.5t64.5 -84
t63.5 -83.5q25 -27 51 -27t53 21q44 35 100 113q72 98 112 98q13 0 13 -15q0 -20 -11 -50q-49 -123 -140 -210q-122 -117 -188 -117z" />
    <glyph glyph-name="exclamdown" unicode="&#xa1;" horiz-adv-x="672" 
 />
    <glyph glyph-name="cent" unicode="&#xa2;" horiz-adv-x="1001" 
d="M109 -464q-7 0 -17 3q-31 16 -31 45q0 8 3 17l204 529q-75 45 -135.5 123.5t-96.5 194.5t-36 273q0 158 40 288t105 224t146 144.5t163 50.5q164 0 266 -123l147 383q17 31 46 31q8 0 16 -3q31 -16 31 -45q0 -8 -3 -17l-173 -449q64 -143 68 -260l-85 -4q0 5 -5.5 47
t-22.5 100l-323 -840q41 -36 82 -53t74 -17q11 0 20 2q69 15 114 80.5t72 146.5t41 142l10 38q13 31 41 31q21 0 33 -16q9 -12 9 -27l-1 -11q-15 -57 -52 -150t-99 -183.5t-152 -138.5v-1q-1 0 -1 1q-55 -29 -121 -29q-60 0 -131 25l-201 -521q-15 -31 -45 -31zM345 331
l339 881q-30 49 -77 84q-88 -6 -169.5 -81t-135 -204.5t-53.5 -298.5q0 -236 96 -381z" />
    <glyph glyph-name="sterling" unicode="&#xa3;" 
 />
    <glyph glyph-name="currency" unicode="&#xa4;" 
 />
    <glyph glyph-name="yen" unicode="&#xa5;" 
 />
    <glyph glyph-name="brokenbar" unicode="&#xa6;" 
 />
    <glyph glyph-name="section" unicode="&#xa7;" 
 />
    <glyph glyph-name="dieresis" unicode="&#xa8;" horiz-adv-x="1024" 
 />
    <glyph glyph-name="copyright" unicode="&#xa9;" horiz-adv-x="1674" 
 />
    <glyph glyph-name="ordfeminine" unicode="&#xaa;" horiz-adv-x="648" 
 />
    <glyph glyph-name="guillemotleft" unicode="&#xab;" horiz-adv-x="944" 
 />
    <glyph glyph-name="logicalnot" unicode="&#xac;" 
 />
    <glyph glyph-name="registered" unicode="&#xae;" horiz-adv-x="1674" 
 />
    <glyph glyph-name="macron" unicode="&#xaf;" horiz-adv-x="1024" 
 />
    <glyph glyph-name="degree" unicode="&#xb0;" horiz-adv-x="674" 
 />
    <glyph glyph-name="plusminus" unicode="&#xb1;" 
 />
    <glyph glyph-name="uni00B2" unicode="&#xb2;" 
 />
    <glyph glyph-name="uni00B3" unicode="&#xb3;" 
 />
    <glyph glyph-name="acute" unicode="&#xb4;" horiz-adv-x="1024" 
 />
    <glyph glyph-name="mu" unicode="&#xb5;" horiz-adv-x="1180" 
 />
    <glyph glyph-name="paragraph" unicode="&#xb6;" horiz-adv-x="1024" 
 />
    <glyph glyph-name="periodcentered" unicode="&#x2219;" horiz-adv-x="508" 
 />
    <glyph glyph-name="periodcentered" unicode="&#xb7;" horiz-adv-x="508" 
 />
    <glyph glyph-name="cedilla" unicode="&#xb8;" horiz-adv-x="1024" 
 />
    <glyph glyph-name="uni00B9" unicode="&#xb9;" 
 />
    <glyph glyph-name="ordmasculine" unicode="&#xba;" horiz-adv-x="1522" 
 />
    <glyph glyph-name="guillemotright" unicode="&#xbb;" horiz-adv-x="944" 
 />
    <glyph glyph-name="onequarter" unicode="&#xbc;" horiz-adv-x="1708" 
 />
    <glyph glyph-name="onehalf" unicode="&#xbd;" horiz-adv-x="2370" 
 />
    <glyph glyph-name="threequarters" unicode="&#xbe;" horiz-adv-x="1708" 
 />
    <glyph glyph-name="questiondown" unicode="&#xbf;" horiz-adv-x="748" 
 />
    <glyph glyph-name="Agrave" unicode="&#xc0;" horiz-adv-x="772" 
 />
    <glyph glyph-name="Aacute" unicode="&#xc1;" horiz-adv-x="926" 
 />
    <glyph glyph-name="Acircumflex" unicode="&#xc2;" horiz-adv-x="1023" 
 />
    <glyph glyph-name="Atilde" unicode="&#xc3;" horiz-adv-x="1043" 
 />
    <glyph glyph-name="Adieresis" unicode="&#xc4;" horiz-adv-x="951" 
 />
    <glyph glyph-name="Aring" unicode="&#xc5;" horiz-adv-x="791" 
 />
    <glyph glyph-name="AE" unicode="&#xc6;" horiz-adv-x="1414" 
 />
    <glyph glyph-name="Ccedilla" unicode="&#xc7;" horiz-adv-x="1074" 
 />
    <glyph glyph-name="Egrave" unicode="&#xc8;" horiz-adv-x="948" 
 />
    <glyph glyph-name="Eacute" unicode="&#xc9;" horiz-adv-x="948" 
 />
    <glyph glyph-name="Ecircumflex" unicode="&#xca;" horiz-adv-x="1110" 
 />
    <glyph glyph-name="Edieresis" unicode="&#xcb;" horiz-adv-x="1084" 
 />
    <glyph glyph-name="Igrave" unicode="&#xcc;" horiz-adv-x="788" 
 />
    <glyph glyph-name="Iacute" unicode="&#xcd;" horiz-adv-x="615" 
 />
    <glyph glyph-name="Icircumflex" unicode="&#xce;" horiz-adv-x="1023" 
 />
    <glyph glyph-name="Idieresis" unicode="&#xcf;" horiz-adv-x="854" 
 />
    <glyph glyph-name="Eth" unicode="&#xd0;" horiz-adv-x="1513" 
 />
    <glyph glyph-name="Ntilde" unicode="&#xd1;" horiz-adv-x="1049" 
 />
    <glyph glyph-name="Ograve" unicode="&#xd2;" horiz-adv-x="889" 
 />
    <glyph glyph-name="Oacute" unicode="&#xd3;" horiz-adv-x="863" 
 />
    <glyph glyph-name="Ocircumflex" unicode="&#xd4;" horiz-adv-x="1023" 
 />
    <glyph glyph-name="Otilde" unicode="&#xd5;" horiz-adv-x="1052" 
 />
    <glyph glyph-name="Odieresis" unicode="&#xd6;" horiz-adv-x="920" 
 />
    <glyph glyph-name="multiply" unicode="&#xd7;" horiz-adv-x="911" 
 />
    <glyph glyph-name="Oslash" unicode="&#xd8;" horiz-adv-x="990" 
 />
    <glyph glyph-name="Ugrave" unicode="&#xd9;" horiz-adv-x="946" 
 />
    <glyph glyph-name="Uacute" unicode="&#xda;" horiz-adv-x="1005" 
 />
    <glyph glyph-name="Ucircumflex" unicode="&#xdb;" horiz-adv-x="1041" 
 />
    <glyph glyph-name="Udieresis" unicode="&#xdc;" horiz-adv-x="990" 
 />
    <glyph glyph-name="Yacute" unicode="&#xdd;" horiz-adv-x="1045" 
 />
    <glyph glyph-name="Thorn" unicode="&#xde;" horiz-adv-x="1120" 
 />
    <glyph glyph-name="germandbls" unicode="&#xdf;" horiz-adv-x="1251" 
 />
    <glyph glyph-name="agrave" unicode="&#xe0;" horiz-adv-x="1094" 
 />
    <glyph glyph-name="aacute" unicode="&#xe1;" horiz-adv-x="1093" 
 />
    <glyph glyph-name="acircumflex" unicode="&#xe2;" horiz-adv-x="1171" 
 />
    <glyph glyph-name="atilde" unicode="&#xe3;" horiz-adv-x="1106" 
 />
    <glyph glyph-name="adieresis" unicode="&#xe4;" horiz-adv-x="1094" 
 />
    <glyph glyph-name="aring" unicode="&#xe5;" horiz-adv-x="1094" 
 />
    <glyph glyph-name="ae" unicode="&#xe6;" horiz-adv-x="1856" 
 />
    <glyph glyph-name="ccedilla" unicode="&#xe7;" horiz-adv-x="1146" 
 />
    <glyph glyph-name="egrave" unicode="&#xe8;" horiz-adv-x="931" 
 />
    <glyph glyph-name="eacute" unicode="&#xe9;" horiz-adv-x="932" 
 />
    <glyph glyph-name="ecircumflex" unicode="&#xea;" horiz-adv-x="1065" 
 />
    <glyph glyph-name="edieresis" unicode="&#xeb;" horiz-adv-x="939" 
 />
    <glyph glyph-name="igrave" unicode="&#xec;" horiz-adv-x="560" 
 />
    <glyph glyph-name="iacute" unicode="&#xed;" horiz-adv-x="551" 
 />
    <glyph glyph-name="icircumflex" unicode="&#xee;" horiz-adv-x="1023" 
 />
    <glyph glyph-name="idieresis" unicode="&#xef;" horiz-adv-x="854" 
 />
    <glyph glyph-name="eth" unicode="&#xf0;" horiz-adv-x="1139" 
 />
    <glyph glyph-name="ntilde" unicode="&#xf1;" horiz-adv-x="1043" 
 />
    <glyph glyph-name="ograve" unicode="&#xf2;" horiz-adv-x="848" 
 />
    <glyph glyph-name="oacute" unicode="&#xf3;" horiz-adv-x="864" 
 />
    <glyph glyph-name="ocircumflex" unicode="&#xf4;" horiz-adv-x="1023" 
 />
    <glyph glyph-name="otilde" unicode="&#xf5;" horiz-adv-x="1043" 
 />
    <glyph glyph-name="odieresis" unicode="&#xf6;" horiz-adv-x="882" 
 />
    <glyph glyph-name="divide" unicode="&#xf7;" 
 />
    <glyph glyph-name="oslash" unicode="&#xf8;" horiz-adv-x="1026" 
 />
    <glyph glyph-name="ugrave" unicode="&#xf9;" horiz-adv-x="998" 
 />
    <glyph glyph-name="uacute" unicode="&#xfa;" horiz-adv-x="998" 
 />
    <glyph glyph-name="ucircumflex" unicode="&#xfb;" horiz-adv-x="1049" 
 />
    <glyph glyph-name="udieresis" unicode="&#xfc;" horiz-adv-x="998" 
 />
    <glyph glyph-name="yacute" unicode="&#xfd;" horiz-adv-x="986" 
 />
    <glyph glyph-name="thorn" unicode="&#xfe;" horiz-adv-x="1010" 
 />
    <glyph glyph-name="ydieresis" unicode="&#xff;" horiz-adv-x="986" 
 />
    <glyph glyph-name="dotlessi" unicode="&#x131;" horiz-adv-x="514" 
 />
    <glyph glyph-name="gravecomb" unicode="&#x300;" horiz-adv-x="551" 
 />
    <glyph glyph-name="acutecomb" unicode="&#x301;" horiz-adv-x="551" 
 />
    <glyph glyph-name="uni0302" unicode="&#x302;" horiz-adv-x="1023" 
 />
    <glyph glyph-name="tildecomb" unicode="&#x303;" horiz-adv-x="1042" 
 />
    <glyph glyph-name="uni0304" unicode="&#x304;" horiz-adv-x="0" 
 />
    <glyph glyph-name="uni0307" unicode="&#x307;" horiz-adv-x="0" 
 />
    <glyph glyph-name="uni0308" unicode="&#x308;" horiz-adv-x="1049" 
 />
    <glyph glyph-name="uni030A" unicode="&#x30a;" horiz-adv-x="618" 
 />
    <glyph glyph-name="uni030C" unicode="&#x30c;" horiz-adv-x="1023" 
 />
    <glyph glyph-name="uni0327" unicode="&#x327;" horiz-adv-x="557" 
 />
    <glyph glyph-name="endash" unicode="&#x2013;" horiz-adv-x="1108" 
 />
    <glyph glyph-name="emdash" unicode="&#x2014;" horiz-adv-x="2048" 
 />
    <glyph glyph-name="quoteleft" unicode="&#x2018;" horiz-adv-x="263" 
 />
    <glyph glyph-name="quoteright" unicode="&#x2019;" horiz-adv-x="263" 
 />
    <glyph glyph-name="quotesinglbase" unicode="&#x201a;" horiz-adv-x="263" 
 />
    <glyph glyph-name="quotedblleft" unicode="&#x201c;" horiz-adv-x="532" 
 />
    <glyph glyph-name="quotedblright" unicode="&#x201d;" horiz-adv-x="532" 
 />
    <glyph glyph-name="quotedblbase" unicode="&#x201e;" horiz-adv-x="532" 
 />
    <glyph glyph-name="dagger" unicode="&#x2020;" 
 />
    <glyph glyph-name="daggerdbl" unicode="&#x2021;" 
 />
    <glyph glyph-name="bullet" unicode="&#x2022;" horiz-adv-x="1024" 
 />
    <glyph glyph-name="ellipsis" unicode="&#x2026;" horiz-adv-x="2048" 
 />
    <glyph glyph-name="guilsinglleft" unicode="&#x2039;" horiz-adv-x="631" 
 />
    <glyph glyph-name="guilsinglright" unicode="&#x203a;" horiz-adv-x="631" 
 />
    <glyph glyph-name="fraction" unicode="&#x2215;" horiz-adv-x="342" 
 />
    <glyph glyph-name="fraction" unicode="&#x2044;" horiz-adv-x="342" 
 />
    <glyph glyph-name="franc" unicode="&#x20a3;" 
 />
    <glyph glyph-name="lira" unicode="&#x20a4;" 
 />
    <glyph glyph-name="peseta" unicode="&#x20a7;" horiz-adv-x="2028" 
 />
    <glyph glyph-name="Euro" unicode="&#x20ac;" 
 />
    <glyph glyph-name="uni2116" unicode="&#x2116;" horiz-adv-x="2271" 
 />
    <glyph glyph-name="trademark" unicode="&#x2122;" horiz-adv-x="1497" 
 />
    <glyph glyph-name="partialdiff" unicode="&#x2202;" 
 />
    <glyph glyph-name="Delta" unicode="&#x2206;" horiz-adv-x="1081" 
 />
    <glyph glyph-name="product" unicode="&#x220f;" horiz-adv-x="1515" 
 />
    <glyph glyph-name="summation" unicode="&#x2211;" horiz-adv-x="1206" 
 />
    <glyph glyph-name="minus" unicode="&#x2212;" horiz-adv-x="716" 
 />
    <glyph glyph-name="radical" unicode="&#x221a;" 
 />
    <glyph glyph-name="infinity" unicode="&#x221e;" 
 />
    <glyph glyph-name="integral" unicode="&#x222b;" horiz-adv-x="665" 
 />
    <glyph glyph-name="approxequal" unicode="&#x2248;" 
 />
    <glyph glyph-name="lessequal" unicode="&#x2264;" 
 />
    <glyph glyph-name="greaterequal" unicode="&#x2265;" 
 />
    <glyph glyph-name="A.salt" unicode="&#xe000;" horiz-adv-x="763" 
 />
    <glyph glyph-name="B.salt" unicode="&#xe001;" horiz-adv-x="982" 
 />
    <glyph glyph-name="C.salt" unicode="&#xe003;" horiz-adv-x="1073" 
 />
    <glyph glyph-name="uE0003" unicode="&#xe0003;" horiz-adv-x="1171" 
 />
    <glyph glyph-name="E.salt" unicode="&#xe004;" horiz-adv-x="948" 
 />
    <glyph glyph-name="F.salt" unicode="&#xe005;" horiz-adv-x="928" 
 />
    <glyph glyph-name="G.salt" unicode="&#xe006;" horiz-adv-x="1182" 
 />
    <glyph glyph-name="H.salt" unicode="&#xe007;" horiz-adv-x="809" 
 />
    <glyph glyph-name="I.salt" unicode="&#xe008;" horiz-adv-x="552" 
 />
    <glyph glyph-name="J.salt" unicode="&#xe009;" horiz-adv-x="797" 
 />
    <glyph glyph-name="K.salt" unicode="&#xe010;" horiz-adv-x="911" 
 />
    <glyph glyph-name="L.salt" unicode="&#xe011;" horiz-adv-x="1048" 
 />
    <glyph glyph-name="M.salt" unicode="&#xe012;" horiz-adv-x="1122" 
 />
    <glyph glyph-name="N.salt" unicode="&#xe013;" horiz-adv-x="836" 
 />
    <glyph glyph-name="O.salt" unicode="&#xe014;" horiz-adv-x="863" 
 />
    <glyph glyph-name="P.salt" unicode="&#xe015;" horiz-adv-x="858" 
 />
    <glyph glyph-name="Q.salt" unicode="&#xe016;" horiz-adv-x="1220" 
 />
    <glyph glyph-name="R.salt" unicode="&#xe017;" horiz-adv-x="858" 
 />
    <glyph glyph-name="S.salt" unicode="&#xe018;" horiz-adv-x="855" 
 />
    <glyph glyph-name="T.salt" unicode="&#xe019;" horiz-adv-x="981" 
 />
    <glyph glyph-name="U.salt" unicode="&#xe020;" horiz-adv-x="946" 
 />
    <glyph glyph-name="V.salt" unicode="&#xe021;" horiz-adv-x="1017" 
 />
    <glyph glyph-name="W.salt" unicode="&#xe022;" horiz-adv-x="1419" 
 />
    <glyph glyph-name="X.salt" unicode="&#xe023;" horiz-adv-x="1020" 
 />
    <glyph glyph-name="Y.salt" unicode="&#xe024;" horiz-adv-x="1045" 
 />
    <glyph glyph-name="Z.salt" unicode="&#xe025;" horiz-adv-x="939" 
 />
    <glyph glyph-name="Ydieresis" unicode="&#x178;" horiz-adv-x="1045" 
 />
    <glyph glyph-name="zcaron" unicode="&#x17e;" horiz-adv-x="940" 
 />
    <glyph glyph-name="Zcaron" unicode="&#x17d;" horiz-adv-x="940" 
 />
    <glyph glyph-name="Scaron" unicode="&#x160;" horiz-adv-x="933" 
 />
    <glyph glyph-name="scaron" unicode="&#x161;" horiz-adv-x="740" 
 />
    <glyph glyph-name="OE" unicode="&#x152;" horiz-adv-x="1548" 
 />
    <glyph glyph-name="oe" unicode="&#x153;" horiz-adv-x="1522" 
 />
    </font>
</defs>
</svg>
